<svg xmlns="http://www.w3.org/2000/svg" width="760" height="320" viewBox="0 0 760 320">
<rect width="760" height="320" rx="22" fill="#0b1727"/>
<text x="34" y="42" fill="#74efbf" font-family="Arial,sans-serif" font-size="14" font-weight="700">Figure 8 · Action Fusion lineage</text>
<text x="70" y="88" fill="#f7f9fc" font-family="Arial" font-size="15">Standalone vs full stack</text><text x="70" y="129" fill="#a8b6c9" font-family="Arial" font-size="12">Action</text><rect x="155" y="115" width="343.20000000000005" height="14" rx="7" fill="#78a9ff"/><rect x="155" y="133" width="316.8" height="14" rx="7" fill="#74efbf"/><text x="70" y="171" fill="#a8b6c9" font-family="Arial" font-size="12">Compact</text><rect x="155" y="157" width="404.8" height="14" rx="7" fill="#78a9ff"/><rect x="155" y="175" width="391.6" height="14" rx="7" fill="#74efbf"/><text x="70" y="213" fill="#a8b6c9" font-family="Arial" font-size="12">Reducer</text><rect x="155" y="199" width="171.60000000000002" height="14" rx="7" fill="#78a9ff"/><rect x="155" y="217" width="136.4" height="14" rx="7" fill="#74efbf"/><text x="70" y="255" fill="#a8b6c9" font-family="Arial" font-size="12">Pack</text><rect x="155" y="241" width="352.0" height="14" rx="7" fill="#78a9ff"/><rect x="155" y="259" width="250.8" height="14" rx="7" fill="#74efbf"/><text x="610" y="115" fill="#78a9ff" font-family="Arial" font-size="12">alone</text><text x="610" y="137" fill="#74efbf" font-family="Arial" font-size="12">full stack</text><rect x="45" y="105" width="145" height="75" rx="13" fill="#12243a" stroke="#34506f" stroke-width="2"/><text x="117.5" y="135" text-anchor="middle" fill="#f7f9fc" font-family="Arial,sans-serif" font-size="17" font-weight="700">Oracle analysis</text><text x="117.5" y="158" text-anchor="middle" fill="#a8b6c9" font-family="Arial,sans-serif" font-size="12">stage 1</text><line x1="190" y1="142" x2="220" y2="142" stroke="#78a9ff" stroke-width="4"/><polygon points="220,142 210,136 210,148" fill="#78a9ff"/><rect x="220" y="105" width="145" height="75" rx="13" fill="#12243a" stroke="#34506f" stroke-width="2"/><text x="292.5" y="135" text-anchor="middle" fill="#f7f9fc" font-family="Arial,sans-serif" font-size="17" font-weight="700">Baseline</text><text x="292.5" y="158" text-anchor="middle" fill="#a8b6c9" font-family="Arial,sans-serif" font-size="12">stage 2</text><line x1="365" y1="142" x2="395" y2="142" stroke="#78a9ff" stroke-width="4"/><polygon points="395,142 385,136 385,148" fill="#78a9ff"/><rect x="395" y="105" width="145" height="75" rx="13" fill="#12243a" stroke="#34506f" stroke-width="2"/><text x="467.5" y="135" text-anchor="middle" fill="#f7f9fc" font-family="Arial,sans-serif" font-size="17" font-weight="700">Prompt + schema</text><text x="467.5" y="158" text-anchor="middle" fill="#a8b6c9" font-family="Arial,sans-serif" font-size="12">stage 3</text><line x1="540" y1="142" x2="570" y2="142" stroke="#78a9ff" stroke-width="4"/><polygon points="570,142 560,136 560,148" fill="#78a9ff"/><rect x="570" y="105" width="145" height="75" rx="13" fill="#12243a" stroke="#34506f" stroke-width="2"/><text x="642.5" y="135" text-anchor="middle" fill="#f7f9fc" font-family="Arial,sans-serif" font-size="17" font-weight="700">Held-out retain</text><text x="642.5" y="158" text-anchor="middle" fill="#a8b6c9" font-family="Arial,sans-serif" font-size="12">stage 4</text><text x="380" y="235" text-anchor="middle" fill="#a8b6c9" font-family="Arial" font-size="14">27 recorded iterations → retained Action Fusion</text><text x="380" y="265" text-anchor="middle" fill="#ffd27a" font-family="Arial" font-size="12">149 turns saved = full-triggering projection, not final benchmark measurement</text>
</svg>